<svg width="18" height="18" viewBox="0 0 18 18" fill="none" xmlns="http://www.w3.org/2000/svg">
<path fill-rule="evenodd" clip-rule="evenodd" d="M10.0497 16.3932H10.0469C8.92334 16.3928 7.81929 16.1123 6.8387 15.58L3.27975 16.5091L4.23219 13.0469C3.64468 12.0336 3.33554 10.8842 3.33604 9.70662C3.33751 6.02275 6.34921 3.02563 10.0497 3.02563C11.8456 3.02641 13.5312 3.72222 14.7987 4.98514C16.0663 6.24801 16.7639 7.92666 16.7632 9.71189C16.7617 13.3949 13.7512 16.3917 10.0497 16.3932ZM7.00381 14.3685L7.20757 14.4888C8.0643 14.9948 9.04637 15.2625 10.0477 15.2629H10.0499C13.1255 15.2629 15.6287 12.7717 15.6299 9.70957C15.6305 8.22569 15.0506 6.83047 13.9971 5.78078C12.9436 4.73108 11.5426 4.15272 10.0521 4.1522C6.9742 4.1522 4.47098 6.64321 4.46976 9.70507C4.46933 10.7544 4.76434 11.7763 5.32291 12.6605L5.45559 12.8706L4.89188 14.9198L7.00381 14.3685ZM13.2025 11.1504C13.3195 11.2067 13.3985 11.2447 13.4323 11.3007C13.4742 11.3703 13.4742 11.7046 13.3345 12.0946C13.1946 12.4846 12.5245 12.8405 12.2022 12.8884C11.9132 12.9314 11.5475 12.9493 11.1456 12.8222C10.902 12.7453 10.5895 12.6426 10.1893 12.4706C8.6167 11.7948 7.55394 10.2779 7.35308 9.99117C7.33901 9.97109 7.32917 9.95704 7.32368 9.94975L7.32232 9.94795C7.23355 9.83007 6.63872 9.04022 6.63872 8.22275C6.63872 7.45376 7.01828 7.05069 7.19299 6.86516C7.20496 6.85244 7.21596 6.84075 7.22582 6.83004C7.37958 6.6629 7.56133 6.62111 7.67315 6.62111C7.78497 6.62111 7.89692 6.62214 7.99466 6.62703C8.00672 6.62763 8.01926 6.62756 8.03223 6.62748C8.12999 6.62691 8.25186 6.6262 8.37208 6.91361C8.41834 7.02421 8.48601 7.18818 8.55739 7.36112C8.70173 7.71086 8.86122 8.09728 8.88928 8.1532C8.93123 8.23677 8.95918 8.33422 8.90327 8.44569C8.89487 8.4624 8.88711 8.47818 8.87969 8.49325C8.8377 8.57858 8.8068 8.64134 8.73553 8.72417C8.7075 8.75674 8.67853 8.79185 8.64956 8.82696C8.59185 8.8969 8.53414 8.96684 8.48389 9.01666C8.39992 9.09991 8.3125 9.19023 8.41035 9.35737C8.5082 9.52451 8.84486 10.0712 9.34355 10.5139C9.87961 10.9897 10.3455 11.1909 10.5817 11.2928C10.6278 11.3127 10.6652 11.3288 10.6926 11.3425C10.8602 11.4261 10.9581 11.4121 11.056 11.3007C11.1538 11.1893 11.4753 10.8132 11.5871 10.6461C11.6989 10.479 11.8108 10.5069 11.9645 10.5625C12.1183 10.6183 12.9431 11.0221 13.1108 11.1057C13.1436 11.122 13.1742 11.1367 13.2025 11.1504Z" fill="white"/>
</svg>
